<svg xmlns="http://www.w3.org/2000/svg" viewBox="0 0 512 512" role="img" aria-label="IBS Card Manager icon">
  <defs>
	<linearGradient id="cardBg" x1="0" y1="0" x2="1" y2="1">
	  <stop offset="0%" stop-color="#2d7ff9" />
	  <stop offset="100%" stop-color="#1d4ed8" />
	</linearGradient>
	<linearGradient id="scanGlow" x1="0" y1="0" x2="0" y2="1">
	  <stop offset="0%" stop-color="#f8fafc" stop-opacity="0.95" />
	  <stop offset="100%" stop-color="#e2e8f0" stop-opacity="0.95" />
	</linearGradient>
  </defs>
  <rect width="512" height="512" rx="120" fill="#0f172a" />
  <rect x="86" y="70" width="340" height="372" rx="36" fill="url(#cardBg)" />
  <rect x="116" y="100" width="280" height="312" rx="24" fill="url(#scanGlow)" stroke="#bfdbfe" stroke-width="8" stroke-dasharray="18 12" opacity="0.95" />
  <rect x="134" y="120" width="128" height="180" rx="18" fill="#ffffff" opacity="0.88" />
  <circle cx="232" cy="214" r="42" fill="#f59e0b" />
  <path d="M206 214c18-12 36-18 52-18" fill="none" stroke="#ffffff" stroke-width="8" stroke-linecap="round" />
  <path d="M218 194c10 12 16 25 18 40" fill="none" stroke="#ffffff" stroke-width="8" stroke-linecap="round" />
  <path d="M216 234c13-10 25-15 38-16" fill="none" stroke="#ffffff" stroke-width="8" stroke-linecap="round" />
  <rect x="280" y="120" width="86" height="22" rx="11" fill="#1d4ed8" opacity="0.9" />
  <rect x="280" y="154" width="104" height="18" rx="9" fill="#94a3b8" opacity="0.55" />
  <rect x="280" y="186" width="92" height="18" rx="9" fill="#94a3b8" opacity="0.45" />
  <rect x="280" y="240" width="92" height="18" rx="9" fill="#94a3b8" opacity="0.35" />
  <rect x="280" y="272" width="72" height="18" rx="9" fill="#94a3b8" opacity="0.35" />
  <path d="M146 338h220" stroke="#1d4ed8" stroke-width="12" stroke-linecap="round" opacity="0.8" />
  <path d="M146 368h150" stroke="#1d4ed8" stroke-width="12" stroke-linecap="round" opacity="0.45" />
  <path d="M382 78l28 28" stroke="#93c5fd" stroke-width="16" stroke-linecap="round" opacity="0.95" />
  <path d="M410 78l-28 28" stroke="#93c5fd" stroke-width="16" stroke-linecap="round" opacity="0.95" />
</svg>
